<svg width="72" height="90" viewBox="0 0 72 90" fill="none" xmlns="http://www.w3.org/2000/svg">
<g clip-path="url(#clip0_757_5326)">
<rect width="72" height="90" rx="10" fill="#14141D"/>
<circle cx="36" cy="45" r="50" fill="#181822"/>
<circle cx="36" cy="45" r="40" fill="#1F1F2D"/>
<circle cx="36" cy="45" r="30" fill="#272737"/>
<circle cx="36" cy="45" r="20" fill="#323246"/>
<path d="M35.0006 45C27.1447 45 26.1271 36.793 26.0101 33.9533C25.9881 33.4176 26.4238 33 26.9599 33H43.0414C43.5775 33 44.0131 33.423 43.9909 33.9586C43.9786 34.2533 43.9567 34.6055 43.9185 35M35.0006 45H45.7932C46.2386 45 46.4617 45.5385 46.1468 45.8535L45.1471 46.8535C45.0533 46.9473 44.9261 47 44.7935 47H27.2077C27.0751 47 26.9479 46.9473 26.8542 46.8536L25.8539 45.8536C25.5388 45.5386 25.7619 45 26.2074 45H35.0006ZM35.0006 45C38.6765 45 40.8552 43.2031 42.145 41M43.9185 35H46C46.5523 35 47 35.4477 47 36V40C47 40.5523 46.5523 41 46 41H42.145M43.9185 35C43.7606 36.6306 43.3245 38.9852 42.145 41" stroke="white"/>
<path d="M38.9231 28.4615L38.3419 27.4929C38.1575 27.1855 38.2738 26.7862 38.5944 26.6259L39.3127 26.2667C39.61 26.1181 39.7355 25.7602 39.5962 25.4584L38 22" stroke="white" stroke-linecap="round"/>
<path d="M34.9992 30.1539L34.4181 29.1853C34.2336 28.8779 34.3499 28.4786 34.6706 28.3183L35.3888 27.9591C35.6861 27.8105 35.8117 27.4526 35.6724 27.1508L34.0762 23.6924" stroke="white" stroke-linecap="round"/>
<path d="M30.9231 28.4615L30.3419 27.4929C30.1575 27.1855 30.2738 26.7862 30.5944 26.6259L31.3127 26.2667C31.61 26.1181 31.7355 25.7602 31.5962 25.4584L30 22" stroke="white" stroke-linecap="round"/>
<path d="M29.1743 59.1699H30.9263C30.8911 59.7441 30.7329 60.2539 30.4516 60.6992C30.1743 61.1445 29.7856 61.4922 29.2856 61.7422C28.7895 61.9922 28.1919 62.1172 27.4927 62.1172C26.9458 62.1172 26.4555 62.0234 26.022 61.8359C25.5884 61.6445 25.2173 61.3711 24.9087 61.0156C24.604 60.6602 24.3716 60.2305 24.2114 59.7266C24.0513 59.2227 23.9712 58.6582 23.9712 58.0332V57.4414C23.9712 56.8164 24.0532 56.252 24.2173 55.748C24.3852 55.2402 24.6235 54.8086 24.9321 54.4531C25.2446 54.0977 25.6177 53.8242 26.0513 53.6328C26.4848 53.4414 26.9692 53.3457 27.5044 53.3457C28.2153 53.3457 28.8149 53.4746 29.3032 53.7324C29.7954 53.9902 30.1763 54.3457 30.4458 54.7988C30.7192 55.252 30.8833 55.7676 30.938 56.3457H29.1802C29.1606 56.002 29.0923 55.7109 28.9751 55.4727C28.8579 55.2305 28.6802 55.0488 28.4419 54.9277C28.2075 54.8027 27.895 54.7402 27.5044 54.7402C27.2114 54.7402 26.9555 54.7949 26.7368 54.9043C26.518 55.0137 26.3345 55.1797 26.186 55.4023C26.0376 55.625 25.9263 55.9062 25.852 56.2461C25.7817 56.582 25.7466 56.9766 25.7466 57.4297V58.0332C25.7466 58.4746 25.7798 58.8633 25.8462 59.1992C25.9126 59.5312 26.0141 59.8125 26.1509 60.043C26.2915 60.2695 26.4712 60.4414 26.6899 60.5586C26.9126 60.6719 27.1802 60.7285 27.4927 60.7285C27.8598 60.7285 28.1626 60.6699 28.4009 60.5527C28.6391 60.4355 28.8208 60.2617 28.9458 60.0312C29.0747 59.8008 29.1509 59.5137 29.1743 59.1699ZM33.8616 53V62H32.1741V53H33.8616ZM33.6213 58.6074H33.1584C33.1623 58.166 33.2209 57.7598 33.3342 57.3887C33.4475 57.0137 33.6096 56.6895 33.8205 56.416C34.0315 56.1387 34.2834 55.9238 34.5764 55.7715C34.8733 55.6191 35.2014 55.543 35.5608 55.543C35.8733 55.543 36.1565 55.5879 36.4104 55.6777C36.6682 55.7637 36.8889 55.9043 37.0725 56.0996C37.26 56.291 37.4045 56.543 37.5061 56.8555C37.6077 57.168 37.6584 57.5469 37.6584 57.9922V62H35.9592V57.9805C35.9592 57.6992 35.9182 57.4785 35.8362 57.3184C35.758 57.1543 35.6428 57.0391 35.4905 56.9727C35.342 56.9023 35.1584 56.8672 34.9397 56.8672C34.6975 56.8672 34.4905 56.9121 34.3186 57.002C34.1506 57.0918 34.0159 57.2168 33.9143 57.377C33.8127 57.5332 33.7385 57.7168 33.6916 57.9277C33.6448 58.1387 33.6213 58.3652 33.6213 58.6074ZM40.9629 55.6602V62H39.2695V55.6602H40.9629ZM39.1641 54.0078C39.1641 53.7617 39.25 53.5586 39.4219 53.3984C39.5938 53.2383 39.8242 53.1582 40.1133 53.1582C40.3984 53.1582 40.627 53.2383 40.7988 53.3984C40.9746 53.5586 41.0625 53.7617 41.0625 54.0078C41.0625 54.2539 40.9746 54.457 40.7988 54.6172C40.627 54.7773 40.3984 54.8574 40.1133 54.8574C39.8242 54.8574 39.5938 54.7773 39.4219 54.6172C39.25 54.457 39.1641 54.2539 39.1641 54.0078ZM44.3787 53V62H42.6853V53H44.3787ZM47.7945 53V62H46.1011V53H47.7945Z" fill="white"/>
</g>
<defs>
<clipPath id="clip0_757_5326">
<rect width="72" height="90" rx="10" fill="white"/>
</clipPath>
</defs>
</svg>
