<svg width="72" height="90" viewBox="0 0 72 90" fill="none" xmlns="http://www.w3.org/2000/svg">
<g clip-path="url(#clip0_757_5339)">
<rect width="72" height="90" rx="12" fill="#14141D"/>
<path d="M36 7.66038C38.9245 7.66038 41.3302 5.25472 41.3302 2.33019C41.3302 -0.59434 38.9245 -3 36 -3C33.0755 -3 30.6698 -0.59434 30.6698 2.33019C30.6698 5.25472 33.0755 7.66038 36 7.66038ZM7.93396 19.2642C10.8585 19.2642 13.2642 16.8585 13.2642 13.934C13.2642 11.0094 10.8585 8.60377 7.93396 8.60377C5.00943 8.60377 2.60377 11.0094 2.60377 13.934C2.60377 16.8585 5.00943 19.2642 7.93396 19.2642ZM64.066 19.2642C66.9906 19.2642 69.3962 16.8585 69.3962 13.934C69.3962 11.0094 66.9906 8.60377 64.066 8.60377C61.1415 8.60377 58.7358 11.0094 58.7358 13.934C58.7358 16.8585 61.1415 19.2642 64.066 19.2642ZM-3.66981 47.3302C-0.698113 47.3302 1.70755 44.9245 1.70755 42C1.70755 39.0755 -0.698113 36.6698 -3.66981 36.6698C-6.59434 36.6698 -9 39.0755 -9 42C-9 44.9245 -6.59434 47.3302 -3.66981 47.3302ZM75.6698 47.3302C78.5943 47.3302 81 44.9245 81 42C81 39.0755 78.5943 36.6698 75.6698 36.6698C72.7453 36.6698 70.3396 39.0755 70.3396 42C70.3396 44.9245 72.7453 47.3302 75.6698 47.3302ZM64.066 75.3962C66.9906 75.3962 69.3962 72.9906 69.3962 70.066C69.3962 67.1415 66.9906 64.7358 64.066 64.7358C61.1415 64.7358 58.7358 67.1415 58.7358 70.066C58.7358 72.9906 61.1415 75.3962 64.066 75.3962ZM7.93396 75.3962C10.8585 75.3962 13.2642 72.9906 13.2642 70.066C13.2642 67.1415 10.8585 64.7358 7.93396 64.7358C5.00943 64.7358 2.60377 67.1415 2.60377 70.066C2.60377 72.9906 5.00943 75.3962 7.93396 75.3962ZM36 87C38.9245 87 41.3302 84.5943 41.3302 81.6698C41.3302 78.6981 38.9245 76.3396 36 76.3396C33.0755 76.3396 30.6698 78.6981 30.6698 81.6698C30.6698 84.5943 33.0755 87 36 87Z" fill="#181822"/>
<path d="M33.2102 19.2642C33.2102 22.1887 30.8046 24.5943 27.8801 24.5943C24.9555 24.5943 22.5499 22.1887 22.5499 19.2642C22.5499 16.3396 24.9555 13.934 27.8801 13.934C30.8046 13.934 33.2102 16.3396 33.2102 19.2642Z" fill="#1F1F2D"/>
<path d="M18.5943 50.8681C18.5943 53.7926 16.1887 56.1982 13.2642 56.1982C10.3396 56.1982 7.93396 53.7926 7.93396 50.8681C7.93396 47.9435 10.3396 45.5379 13.2642 45.5379C16.1887 45.5379 18.5943 47.9435 18.5943 50.8681Z" fill="#1F1F2D"/>
<path d="M33.2102 64.7358C33.2102 67.6604 30.8046 70.066 27.8801 70.066C24.9555 70.066 22.5499 67.6604 22.5499 64.7358C22.5499 61.8113 24.9555 59.4057 27.8801 59.4057C30.8046 59.4057 33.2102 61.8113 33.2102 64.7358Z" fill="#1F1F2D"/>
<path d="M18.5943 32.8154C18.5943 35.7399 16.1887 38.1456 13.2642 38.1456C10.3396 38.1456 7.93396 35.7399 7.93396 32.8154C7.93396 29.8908 10.3396 27.4852 13.2642 27.4852C16.1887 27.4852 18.5943 29.8908 18.5943 32.8154Z" fill="#1F1F2D"/>
<path d="M50.4609 19.2642C50.4609 22.1887 48.0553 24.5943 45.1307 24.5943C42.2062 24.5943 39.8005 22.1887 39.8005 19.2642C39.8005 16.3396 42.2062 13.934 45.1307 13.934C48.0553 13.934 50.4609 16.3396 50.4609 19.2642Z" fill="#1F1F2D"/>
<path d="M50.4609 64.7358C50.4609 67.6604 48.0553 70.066 45.1307 70.066C42.2062 70.066 39.8005 67.6604 39.8005 64.7358C39.8005 61.8113 42.2062 59.4057 45.1307 59.4057C48.0553 59.4057 50.4609 61.8113 50.4609 64.7358Z" fill="#1F1F2D"/>
<path d="M64.066 50.8681C64.066 53.7926 61.6604 56.1982 58.7358 56.1982C55.8113 56.1982 53.4057 53.7926 53.4057 50.8681C53.4057 47.9435 55.8113 45.5379 58.7358 45.5379C61.6604 45.5379 64.066 47.9435 64.066 50.8681Z" fill="#1F1F2D"/>
<path d="M64.066 32.8154C64.066 35.7399 61.6604 38.1456 58.7358 38.1456C55.8113 38.1456 53.4057 35.7399 53.4057 32.8154C53.4057 29.8908 55.8113 27.4852 58.7358 27.4852C61.6604 27.4852 64.066 29.8908 64.066 32.8154Z" fill="#1F1F2D"/>
<path d="M41.3302 34.5C41.3302 37.4245 38.9245 39.8302 36 39.8302C33.0755 39.8302 30.6698 37.4245 30.6698 34.5C30.6698 31.5755 33.0755 29.1698 36 29.1698C38.9245 29.1698 41.3302 31.5755 41.3302 34.5Z" fill="#323246"/>
<path d="M41.3302 49.7948C41.3302 52.7193 38.9245 55.125 36 55.125C33.0755 55.125 30.6698 52.7193 30.6698 49.7948C30.6698 46.8703 33.0755 44.4646 36 44.4646C38.9245 44.4646 41.3302 46.8703 41.3302 49.7948Z" fill="#323246"/>
<path d="M29.2547 42C29.2547 44.9245 26.8491 47.3302 23.9245 47.3302C21 47.3302 18.5943 44.9245 18.5943 42C18.5943 39.0755 21 36.6698 23.9245 36.6698C26.8491 36.6698 29.2547 39.0755 29.2547 42Z" fill="#323246"/>
<path d="M53.4057 42C53.4057 44.9245 51 47.3302 48.0755 47.3302C45.1509 47.3302 42.7453 44.9245 42.7453 42C42.7453 39.0755 45.1509 36.6698 48.0755 36.6698C51 36.6698 53.4057 39.0755 53.4057 42Z" fill="#323246"/>
<path d="M39.7985 36.7467C39.7985 39.5979 38.7641 42.1992 37.7116 44.1039C37.187 45.0533 36.6623 45.8215 36.2698 46.3512C36.1706 46.4851 36.0799 46.6036 35.9999 46.7059C35.9198 46.6036 35.8291 46.4851 35.7299 46.3512C35.3374 45.8215 34.8127 45.0533 34.2881 44.1039C33.2356 42.1992 32.2012 39.5979 32.2012 36.7467C32.2012 33.8955 33.2356 31.2942 34.2881 29.3895C34.8127 28.4401 35.3374 27.6719 35.7299 27.1422C35.8291 27.0083 35.9198 26.8898 35.9999 26.7875C36.0799 26.8898 36.1706 27.0083 36.2698 27.1422C36.6623 27.6719 37.187 28.4401 37.7116 29.3895C38.7641 31.2942 39.7985 33.8955 39.7985 36.7467Z" stroke="white"/>
<path d="M32.9723 38.8025C34.4792 40.3095 35.1242 42.4451 35.3815 44.2588C35.5092 45.1585 35.5389 45.9615 35.5367 46.5391C35.536 46.7279 35.5318 46.8923 35.5266 47.0275C35.3914 47.0327 35.2271 47.0368 35.0382 47.0376C34.4607 47.0398 33.6577 47.0101 32.7579 46.8824C30.9442 46.6251 28.8086 45.9801 27.3016 44.4732C25.7947 42.9662 25.1497 40.8306 24.8924 39.0169C24.7647 38.1171 24.735 37.3141 24.7372 36.7366C24.738 36.5477 24.7421 36.3834 24.7473 36.2482C24.8826 36.243 25.0469 36.2389 25.2357 36.2381C25.8133 36.2359 26.6163 36.2656 27.516 36.3933C29.3297 36.6506 31.4654 37.2956 32.9723 38.8025Z" stroke="white"/>
<path d="M39.0277 38.8025C37.5208 40.3095 36.8758 42.4451 36.6185 44.2588C36.4908 45.1585 36.4611 45.9615 36.4633 46.5391C36.464 46.7279 36.4682 46.8923 36.4734 47.0275C36.6086 47.0327 36.7729 47.0368 36.9618 47.0376C37.5393 47.0398 38.3423 47.0101 39.2421 46.8824C41.0558 46.6251 43.1914 45.9801 44.6984 44.4732C46.2053 42.9662 46.8503 40.8306 47.1076 39.0169C47.2353 38.1171 47.265 37.3141 47.2628 36.7366C47.262 36.5477 47.2579 36.3834 47.2527 36.2482C47.1174 36.243 46.9531 36.2389 46.7643 36.2381C46.1867 36.2359 45.3837 36.2656 44.484 36.3933C42.6703 36.6506 40.5346 37.2956 39.0277 38.8025Z" stroke="white"/>
<path d="M21.8501 53.1577V61.689H20.0923V53.1577H21.8501ZM25.2485 56.8022V58.1733H21.3696V56.8022H25.2485ZM25.6587 53.1577V54.5347H21.3696V53.1577H25.6587ZM26.4143 58.5835V58.4604C26.4143 57.9956 26.4807 57.5679 26.6135 57.1772C26.7463 56.7827 26.9397 56.4409 27.1936 56.1519C27.4475 55.8628 27.76 55.6382 28.1311 55.478C28.5022 55.314 28.928 55.2319 29.4084 55.2319C29.8889 55.2319 30.3166 55.314 30.6916 55.478C31.0666 55.6382 31.3811 55.8628 31.635 56.1519C31.8928 56.4409 32.0881 56.7827 32.2209 57.1772C32.3538 57.5679 32.4202 57.9956 32.4202 58.4604V58.5835C32.4202 59.0444 32.3538 59.4722 32.2209 59.8667C32.0881 60.2573 31.8928 60.5991 31.635 60.8921C31.3811 61.1812 31.0686 61.4058 30.6975 61.5659C30.3264 61.7261 29.9006 61.8062 29.4202 61.8062C28.9397 61.8062 28.512 61.7261 28.137 61.5659C27.7659 61.4058 27.4514 61.1812 27.1936 60.8921C26.9397 60.5991 26.7463 60.2573 26.6135 59.8667C26.4807 59.4722 26.4143 59.0444 26.4143 58.5835ZM28.1018 58.4604V58.5835C28.1018 58.8491 28.1252 59.0972 28.1721 59.3276C28.219 59.5581 28.2932 59.7612 28.3948 59.937C28.5002 60.1089 28.637 60.2437 28.8049 60.3413C28.9729 60.439 29.178 60.4878 29.4202 60.4878C29.6545 60.4878 29.8557 60.439 30.0237 60.3413C30.1916 60.2437 30.3264 60.1089 30.428 59.937C30.5295 59.7612 30.6038 59.5581 30.6506 59.3276C30.7014 59.0972 30.7268 58.8491 30.7268 58.5835V58.4604C30.7268 58.2026 30.7014 57.9604 30.6506 57.7339C30.6038 57.5034 30.5276 57.3003 30.4221 57.1245C30.3205 56.9448 30.1858 56.8042 30.0178 56.7026C29.8498 56.6011 29.6467 56.5503 29.4084 56.5503C29.1702 56.5503 28.967 56.6011 28.7991 56.7026C28.635 56.8042 28.5002 56.9448 28.3948 57.1245C28.2932 57.3003 28.219 57.5034 28.1721 57.7339C28.1252 57.9604 28.1018 58.2026 28.1018 58.4604ZM36.3164 60.4878C36.5234 60.4878 36.707 60.4487 36.8672 60.3706C37.0273 60.2886 37.1523 60.1753 37.2422 60.0308C37.3359 59.8823 37.3848 59.7085 37.3887 59.5093H38.9766C38.9727 59.9546 38.8535 60.3511 38.6191 60.6987C38.3848 61.0425 38.0703 61.314 37.6758 61.5132C37.2812 61.7085 36.8398 61.8062 36.3516 61.8062C35.8594 61.8062 35.4297 61.7241 35.0625 61.5601C34.6992 61.396 34.3965 61.1694 34.1543 60.8804C33.9121 60.5874 33.7305 60.2476 33.6094 59.8608C33.4883 59.4702 33.4277 59.0522 33.4277 58.6069V58.437C33.4277 57.9878 33.4883 57.5698 33.6094 57.1831C33.7305 56.7925 33.9121 56.4526 34.1543 56.1636C34.3965 55.8706 34.6992 55.6421 35.0625 55.478C35.4258 55.314 35.8516 55.2319 36.3398 55.2319C36.8594 55.2319 37.3145 55.3315 37.7051 55.5308C38.0996 55.73 38.4082 56.0151 38.6309 56.3862C38.8574 56.7534 38.9727 57.189 38.9766 57.6929H37.3887C37.3848 57.4819 37.3398 57.2905 37.2539 57.1187C37.1719 56.9468 37.0508 56.8101 36.8906 56.7085C36.7344 56.603 36.541 56.5503 36.3105 56.5503C36.0645 56.5503 35.8633 56.603 35.707 56.7085C35.5508 56.8101 35.4297 56.9507 35.3438 57.1304C35.2578 57.3062 35.1973 57.5073 35.1621 57.7339C35.1309 57.9565 35.1152 58.1909 35.1152 58.437V58.6069C35.1152 58.853 35.1309 59.0894 35.1621 59.3159C35.1934 59.5425 35.252 59.7437 35.3379 59.9194C35.4277 60.0952 35.5508 60.2339 35.707 60.3354C35.8633 60.437 36.0664 60.4878 36.3164 60.4878ZM43.9451 60.1714V55.3491H45.6326V61.689H44.0447L43.9451 60.1714ZM44.1326 58.8706L44.6306 58.8589C44.6306 59.2808 44.5818 59.6733 44.4841 60.0366C44.3865 60.396 44.24 60.7085 44.0447 60.9741C43.8494 61.2358 43.6033 61.4409 43.3064 61.5894C43.0095 61.7339 42.6599 61.8062 42.2576 61.8062C41.949 61.8062 41.6638 61.7632 41.4021 61.6772C41.1443 61.5874 40.9216 61.4487 40.7341 61.2612C40.5505 61.0698 40.406 60.8257 40.3005 60.5288C40.199 60.228 40.1482 59.8667 40.1482 59.4448V55.3491H41.8357V59.4565C41.8357 59.644 41.8572 59.8022 41.9002 59.9312C41.947 60.0601 42.0115 60.1655 42.0935 60.2476C42.1755 60.3296 42.2712 60.3882 42.3806 60.4233C42.4939 60.4585 42.6189 60.4761 42.7556 60.4761C43.1033 60.4761 43.3767 60.4058 43.5759 60.2651C43.7791 60.1245 43.9216 59.9331 44.0037 59.6909C44.0896 59.4448 44.1326 59.1714 44.1326 58.8706ZM50.5894 59.937C50.5894 59.8159 50.5542 59.7065 50.4839 59.6089C50.4136 59.5112 50.2827 59.4214 50.0913 59.3394C49.9038 59.2534 49.6323 59.1753 49.2769 59.105C48.9566 59.0347 48.6577 58.9468 48.3804 58.8413C48.107 58.7319 47.8687 58.6011 47.6655 58.4487C47.4663 58.2964 47.3101 58.1167 47.1968 57.9097C47.0835 57.6987 47.0269 57.4585 47.0269 57.189C47.0269 56.9233 47.0835 56.6733 47.1968 56.439C47.314 56.2046 47.48 55.9976 47.6948 55.8179C47.9136 55.6343 48.1792 55.4917 48.4917 55.3901C48.8081 55.2847 49.1636 55.2319 49.5581 55.2319C50.1089 55.2319 50.5816 55.3198 50.9761 55.4956C51.3745 55.6714 51.6792 55.9136 51.8902 56.2222C52.105 56.5269 52.2124 56.8745 52.2124 57.2651H50.5249C50.5249 57.1011 50.4898 56.9546 50.4195 56.8257C50.353 56.6929 50.2476 56.5894 50.103 56.5151C49.9624 56.437 49.7788 56.3979 49.5523 56.3979C49.3648 56.3979 49.2027 56.4312 49.0659 56.4976C48.9292 56.5601 48.8237 56.646 48.7495 56.7554C48.6792 56.8608 48.6441 56.978 48.6441 57.1069C48.6441 57.2046 48.6636 57.2925 48.7027 57.3706C48.7456 57.4448 48.814 57.5132 48.9077 57.5757C49.0015 57.6382 49.1226 57.6968 49.271 57.7515C49.4234 57.8022 49.6109 57.8491 49.8335 57.8921C50.2905 57.9858 50.6987 58.1089 51.0581 58.2612C51.4175 58.4097 51.7027 58.6128 51.9136 58.8706C52.1245 59.1245 52.23 59.4585 52.23 59.8726C52.23 60.1538 52.1675 60.4116 52.0425 60.646C51.9175 60.8804 51.7378 61.0854 51.5034 61.2612C51.2691 61.4331 50.9878 61.5679 50.6597 61.6655C50.3355 61.7593 49.9702 61.8062 49.564 61.8062C48.9741 61.8062 48.4741 61.7007 48.064 61.4897C47.6577 61.2788 47.3491 61.0112 47.1382 60.687C46.9312 60.3589 46.8277 60.0229 46.8277 59.6792H48.4273C48.4351 59.9097 48.4937 60.0952 48.603 60.2358C48.7163 60.3765 48.8589 60.478 49.0308 60.5405C49.2066 60.603 49.396 60.6343 49.5991 60.6343C49.8179 60.6343 49.9995 60.605 50.1441 60.5464C50.2886 60.4839 50.398 60.4019 50.4722 60.3003C50.5503 60.1948 50.5894 60.0737 50.5894 59.937Z" fill="white"/>
</g>
<defs>
<clipPath id="clip0_757_5339">
<rect width="72" height="90" rx="12" fill="white"/>
</clipPath>
</defs>
</svg>
