<svg width="72" height="90" viewBox="0 0 72 90" fill="none" xmlns="http://www.w3.org/2000/svg">
<g clip-path="url(#clip0_757_5352)">
<rect width="72" height="90" rx="12" fill="#14141D"/>
<circle cx="51.8217" cy="11.2982" r="28.5807" transform="rotate(-84.2547 51.8217 11.2982)" fill="#181822"/>
<circle cx="60.9723" cy="32.8202" r="21.9408" transform="rotate(-84.2547 60.9723 32.8202)" fill="#181822"/>
<circle cx="18.027" cy="98.4352" r="21.9408" transform="rotate(-84.2547 18.027 98.4352)" fill="#181822"/>
<circle cx="27.0579" cy="77.874" r="11.5478" transform="rotate(-84.2547 27.0579 77.874)" fill="#181822"/>
<circle cx="3.64577" cy="33.6479" r="11.5478" transform="rotate(-84.2547 3.64577 33.6479)" fill="#1F1F2D"/>
<circle cx="67.6458" cy="81.5351" r="11.5478" transform="rotate(-84.2547 67.6458 81.5351)" fill="#272737"/>
<circle cx="70.5813" cy="69.6457" r="11.5478" transform="rotate(-84.2547 70.5813 69.6457)" fill="#323246"/>
<circle cx="4.34358" cy="64.2712" r="6.63997" transform="rotate(-84.2547 4.34358 64.2712)" fill="#181822"/>
<circle cx="0.69555" cy="68.8348" r="4.04172" transform="rotate(-84.2547 0.69555 68.8348)" fill="#1F1F2D"/>
<circle cx="8.7057" cy="23.713" r="5.77389" transform="rotate(-84.2547 8.7057 23.713)" fill="#1F1F2D"/>
<path d="M17.2187 68.0982C16.3109 67.4445 16.77 66.011 17.8886 66.0063L19.5783 65.9991C20.0785 65.997 20.5206 65.673 20.6731 65.1965L21.1885 63.5874C21.5296 62.522 23.0348 62.5156 23.3849 63.5781L23.9139 65.1828C24.0705 65.6579 24.5153 65.9782 25.0155 65.9761L26.7052 65.9689C27.8238 65.9642 28.295 67.3937 27.3928 68.055L26.03 69.054C25.6266 69.3497 25.4594 69.8717 25.616 70.3468L26.145 71.9516C26.4952 73.014 25.2812 73.9039 24.3734 73.2502L23.0023 72.2628C22.5963 71.9705 22.0482 71.9728 21.6448 72.2686L20.282 73.2675C19.3798 73.9289 18.1584 73.0494 18.4995 71.984L19.0149 70.3748C19.1674 69.8984 18.9959 69.3779 18.5899 69.0855L17.2187 68.0982Z" fill="#1F1F2D"/>
<path d="M18.8593 3.54811C17.9515 2.89442 18.4106 1.46098 19.5292 1.45624L21.2189 1.44908C21.7192 1.44695 22.1612 1.12294 22.3138 0.646494L22.8291 -0.962681C23.1702 -2.02805 24.6754 -2.03443 25.0256 -0.971997L25.5545 0.632755C25.7111 1.10789 26.1559 1.42814 26.6562 1.42602L28.3458 1.41886C29.4645 1.41411 29.9356 2.84361 29.0334 3.50497L27.6707 4.50393C27.2672 4.7997 27.1 5.32164 27.2567 5.79677L27.7856 7.40153C28.1358 8.46396 26.9219 9.35382 26.0141 8.70013L24.6429 7.71276C24.2369 7.42043 23.6889 7.42275 23.2854 7.71852L21.9226 8.71748C21.0204 9.37884 19.799 8.49931 20.1402 7.43394L20.6555 5.82476C20.8081 5.34832 20.6365 4.82781 20.2305 4.53547L18.8593 3.54811Z" fill="#323246"/>
<path d="M-2.22856 19.0501C-3.13636 18.3964 -2.67731 16.9629 -1.55866 16.9582L0.131002 16.951C0.631277 16.9489 1.07329 16.6249 1.22587 16.1484L1.74119 14.5393C2.08236 13.4739 3.58749 13.4675 3.93768 14.53L4.46663 16.1347C4.62324 16.6098 5.06799 16.9301 5.56826 16.928L7.25793 16.9208C8.37658 16.9161 8.84776 18.3456 7.94554 19.0069L6.58278 20.0059C6.1793 20.3016 6.01215 20.8236 6.16876 21.2987L6.69771 22.9035C7.04791 23.9659 5.83398 24.8558 4.92618 24.2021L3.55501 23.2147C3.14903 22.9224 2.60098 22.9247 2.1975 23.2205L0.83474 24.2194C-0.0674782 24.8808 -1.28891 24.0013 -0.947735 22.9359L-0.432415 21.3267C-0.279838 20.8503 -0.451405 20.3298 -0.857383 20.0374L-2.22856 19.0501Z" fill="#323246"/>
<path d="M33.9838 34.7232C33.8479 35.4559 34.3068 36.0669 35.1067 36.2153L40.7211 37.2569C41.2892 37.3624 41.7767 37.0275 41.8821 36.4593C41.9889 35.8837 41.654 35.3962 41.0859 35.2908L37.004 34.5335L37.0262 34.4139L41.8126 30.082C42.7718 29.2469 43.0532 28.897 43.142 28.4185C43.2821 27.6635 42.8611 27.0982 42.0537 26.9484L36.843 25.9816C36.2599 25.8734 35.7827 26.1947 35.6731 26.7853C35.5649 27.3684 35.8876 27.8382 36.4782 27.9477L40.1863 28.6357L40.1641 28.7553L35.29 33.1019C34.3247 33.9281 34.0726 34.2448 33.9838 34.7232Z" fill="white"/>
<path d="M26.8455 39.4912C26.9387 39.9431 27.3445 40.1863 27.8379 40.0846L31.3007 39.3709C31.6511 39.2987 31.8524 38.9928 31.7802 38.6424C31.707 38.2873 31.4012 38.086 31.0507 38.1582L28.5332 38.6771L28.518 38.6033L30.2511 35.0015C30.6062 34.2987 30.6858 34.0323 30.625 33.7372C30.529 33.2715 30.1556 33.0456 29.6576 33.1483L26.4438 33.8107C26.0842 33.8848 25.8856 34.1805 25.9606 34.5447C26.0348 34.9044 26.3295 35.0984 26.6938 35.0233L28.9808 34.552L28.996 34.6257L27.2159 38.2564C26.8553 38.9556 26.7847 39.1961 26.8455 39.4912Z" fill="white"/>
<path d="M30.9039 46.0547C30.7367 46.444 30.9146 46.8404 31.3396 47.0229L34.3227 48.3045C34.6246 48.4342 34.9369 48.3096 35.0666 48.0077C35.198 47.7018 35.0734 47.3895 34.7715 47.2598L32.6027 46.3281L32.63 46.2645L35.8275 44.4621C36.4642 44.1192 36.6642 43.9604 36.7734 43.7062C36.9457 43.305 36.7831 42.9387 36.3541 42.7544L33.5855 41.565C33.2756 41.4319 32.9707 41.5503 32.8359 41.8641C32.7028 42.1739 32.8229 42.4749 33.1367 42.6097L35.1069 43.4561L35.0796 43.5197L31.8315 45.3192C31.1926 45.6564 31.0131 45.8005 30.9039 46.0547Z" fill="white"/>
<path d="M24.5825 58.7676C24.5825 58.6152 24.5591 58.4785 24.5122 58.3574C24.4692 58.2324 24.3872 58.1191 24.2661 58.0176C24.145 57.9121 23.9751 57.8086 23.7563 57.707C23.5376 57.6055 23.2544 57.5 22.9067 57.3906C22.52 57.2656 22.1528 57.125 21.8052 56.9688C21.4614 56.8125 21.1567 56.6309 20.8911 56.4238C20.6294 56.2129 20.4223 55.9688 20.27 55.6914C20.1216 55.4141 20.0473 55.0918 20.0473 54.7246C20.0473 54.3691 20.1255 54.0469 20.2817 53.7578C20.438 53.4648 20.6567 53.2148 20.938 53.0078C21.2192 52.7969 21.5513 52.6348 21.9341 52.5215C22.3208 52.4082 22.7446 52.3516 23.2055 52.3516C23.8345 52.3516 24.3833 52.4648 24.852 52.6914C25.3208 52.918 25.6841 53.2285 25.9419 53.623C26.2036 54.0176 26.3345 54.4688 26.3345 54.9766H24.5884C24.5884 54.7266 24.5356 54.5078 24.4302 54.3203C24.3286 54.1289 24.1723 53.9785 23.9614 53.8691C23.7544 53.7598 23.4927 53.7051 23.1763 53.7051C22.8716 53.7051 22.6177 53.752 22.4145 53.8457C22.2114 53.9355 22.0591 54.0586 21.9575 54.2148C21.8559 54.3672 21.8052 54.5391 21.8052 54.7305C21.8052 54.875 21.8403 55.0059 21.9106 55.123C21.9848 55.2402 22.0942 55.3496 22.2388 55.4512C22.3833 55.5527 22.561 55.6484 22.772 55.7383C22.9829 55.8281 23.227 55.916 23.5044 56.002C23.9692 56.1426 24.3774 56.3008 24.729 56.4766C25.0845 56.6523 25.3813 56.8496 25.6196 57.0684C25.8579 57.2871 26.0376 57.5352 26.1587 57.8125C26.2798 58.0898 26.3403 58.4043 26.3403 58.7559C26.3403 59.127 26.268 59.459 26.1235 59.752C25.979 60.0449 25.77 60.293 25.4966 60.4961C25.2231 60.6992 24.897 60.8535 24.518 60.959C24.1391 61.0645 23.7153 61.1172 23.2466 61.1172C22.8247 61.1172 22.4087 61.0625 21.9985 60.9531C21.5884 60.8398 21.2153 60.6699 20.8794 60.4434C20.5473 60.2168 20.2817 59.9277 20.0825 59.5762C19.8833 59.2246 19.7837 58.8086 19.7837 58.3281H21.5473C21.5473 58.5938 21.5884 58.8184 21.6704 59.002C21.7524 59.1855 21.8677 59.334 22.0161 59.4473C22.1684 59.5605 22.3481 59.6426 22.5552 59.6934C22.7661 59.7441 22.9966 59.7695 23.2466 59.7695C23.5513 59.7695 23.8013 59.7266 23.9966 59.6406C24.1958 59.5547 24.3423 59.4355 24.436 59.2832C24.5337 59.1309 24.5825 58.959 24.5825 58.7676ZM29.4514 52V61H27.758V52H29.4514ZM34.0039 61.1172C33.5117 61.1172 33.0703 61.0391 32.6797 60.8828C32.2891 60.7227 31.957 60.502 31.6836 60.2207C31.4141 59.9395 31.207 59.6133 31.0625 59.2422C30.918 58.8672 30.8457 58.4688 30.8457 58.0469V57.8125C30.8457 57.332 30.9141 56.8926 31.0508 56.4941C31.1875 56.0957 31.3828 55.75 31.6367 55.457C31.8945 55.1641 32.207 54.9395 32.5742 54.7832C32.9414 54.623 33.3555 54.543 33.8164 54.543C34.2656 54.543 34.6641 54.6172 35.0117 54.7656C35.3594 54.9141 35.6504 55.125 35.8848 55.3984C36.123 55.6719 36.3027 56 36.4238 56.3828C36.5449 56.7617 36.6055 57.1836 36.6055 57.6484V58.3516H31.5664V57.2266H34.9473V57.0977C34.9473 56.8633 34.9043 56.6543 34.8184 56.4707C34.7363 56.2832 34.6113 56.1348 34.4434 56.0254C34.2754 55.916 34.0605 55.8613 33.7988 55.8613C33.5762 55.8613 33.3848 55.9102 33.2246 56.0078C33.0645 56.1055 32.9336 56.2422 32.832 56.418C32.7344 56.5938 32.6602 56.8008 32.6094 57.0391C32.5625 57.2734 32.5391 57.5312 32.5391 57.8125V58.0469C32.5391 58.3008 32.5742 58.5352 32.6445 58.75C32.7188 58.9648 32.8223 59.1504 32.9551 59.3066C33.0918 59.4629 33.2559 59.584 33.4473 59.6699C33.6426 59.7559 33.8633 59.7988 34.1094 59.7988C34.4141 59.7988 34.6973 59.7402 34.959 59.623C35.2246 59.502 35.4531 59.3203 35.6445 59.0781L36.4648 59.9688C36.332 60.1602 36.1504 60.3438 35.9199 60.5195C35.6934 60.6953 35.4199 60.8398 35.0996 60.9531C34.7793 61.0625 34.4141 61.1172 34.0039 61.1172ZM40.7244 61.1172C40.2322 61.1172 39.7908 61.0391 39.4002 60.8828C39.0095 60.7227 38.6775 60.502 38.4041 60.2207C38.1345 59.9395 37.9275 59.6133 37.783 59.2422C37.6384 58.8672 37.5662 58.4688 37.5662 58.0469V57.8125C37.5662 57.332 37.6345 56.8926 37.7712 56.4941C37.908 56.0957 38.1033 55.75 38.3572 55.457C38.615 55.1641 38.9275 54.9395 39.2947 54.7832C39.6619 54.623 40.0759 54.543 40.5369 54.543C40.9861 54.543 41.3845 54.6172 41.7322 54.7656C42.0798 54.9141 42.3709 55.125 42.6052 55.3984C42.8435 55.6719 43.0232 56 43.1443 56.3828C43.2654 56.7617 43.3259 57.1836 43.3259 57.6484V58.3516H38.2869V57.2266H41.6677V57.0977C41.6677 56.8633 41.6248 56.6543 41.5388 56.4707C41.4568 56.2832 41.3318 56.1348 41.1638 56.0254C40.9959 55.916 40.781 55.8613 40.5193 55.8613C40.2966 55.8613 40.1052 55.9102 39.9451 56.0078C39.7849 56.1055 39.6541 56.2422 39.5525 56.418C39.4548 56.5938 39.3806 56.8008 39.3298 57.0391C39.283 57.2734 39.2595 57.5312 39.2595 57.8125V58.0469C39.2595 58.3008 39.2947 58.5352 39.365 58.75C39.4392 58.9648 39.5427 59.1504 39.6755 59.3066C39.8123 59.4629 39.9763 59.584 40.1677 59.6699C40.363 59.7559 40.5837 59.7988 40.8298 59.7988C41.1345 59.7988 41.4177 59.7402 41.6795 59.623C41.9451 59.502 42.1736 59.3203 42.365 59.0781L43.1853 59.9688C43.0525 60.1602 42.8709 60.3438 42.6404 60.5195C42.4138 60.6953 42.1404 60.8398 41.8201 60.9531C41.4998 61.0625 41.1345 61.1172 40.7244 61.1172ZM46.2144 55.8789V63.4375H44.5269V54.6602H46.0913L46.2144 55.8789ZM50.228 57.7598V57.8828C50.228 58.3438 50.1734 58.7715 50.064 59.166C49.9585 59.5605 49.8023 59.9043 49.5952 60.1973C49.3882 60.4863 49.1304 60.7129 48.8218 60.877C48.5171 61.0371 48.1655 61.1172 47.7671 61.1172C47.3804 61.1172 47.0445 61.0391 46.7593 60.8828C46.4741 60.7266 46.2339 60.5078 46.0386 60.2266C45.8472 59.9414 45.6929 59.6113 45.5757 59.2363C45.4585 58.8613 45.3687 58.459 45.3062 58.0293V57.707C45.3687 57.2461 45.4585 56.8242 45.5757 56.4414C45.6929 56.0547 45.8472 55.7207 46.0386 55.4395C46.2339 55.1543 46.4722 54.9336 46.7534 54.7773C47.0386 54.6211 47.3726 54.543 47.7554 54.543C48.1577 54.543 48.5112 54.6191 48.8159 54.7715C49.1245 54.9238 49.3823 55.1426 49.5894 55.4277C49.8003 55.7129 49.9585 56.0527 50.064 56.4473C50.1734 56.8418 50.228 57.2793 50.228 57.7598ZM48.5347 57.8828V57.7598C48.5347 57.4902 48.5112 57.2422 48.4644 57.0156C48.4214 56.7852 48.3511 56.584 48.2534 56.4121C48.1597 56.2402 48.0347 56.1074 47.8784 56.0137C47.7261 55.916 47.5405 55.8672 47.3218 55.8672C47.0913 55.8672 46.8941 55.9043 46.73 55.9785C46.5698 56.0527 46.439 56.1602 46.3374 56.3008C46.2359 56.4414 46.1597 56.6094 46.1089 56.8047C46.0581 57 46.0269 57.2207 46.0152 57.4668V58.2812C46.0347 58.5703 46.0894 58.8301 46.1792 59.0605C46.2691 59.2871 46.4077 59.4668 46.5952 59.5996C46.7827 59.7324 47.0288 59.7988 47.3335 59.7988C47.5562 59.7988 47.7437 59.75 47.896 59.6523C48.0484 59.5508 48.1714 59.4121 48.2652 59.2363C48.3628 59.0605 48.4312 58.8574 48.4702 58.627C48.5132 58.3965 48.5347 58.1484 48.5347 57.8828Z" fill="white"/>
</g>
<defs>
<clipPath id="clip0_757_5352">
<rect width="72" height="90" rx="12" fill="white"/>
</clipPath>
</defs>
</svg>
